# xmcd
#
# Track frame offsets: 
#        150
#        3750
#        18600
#        37050
#        51375
#        65925
#        81900
#        95175
#        109725
#        129750
#        143625
#        163125
#        183000
#        200100
#        213900
#        228000
#        242775
#        260400
#
# Disc length: 3660 seconds
#
# Revision: 0
# Processed by: cddbd v1.5.1PL0 Copyright (c) Steve Scherf et al.
# Submitted via: ExactAudioCopy v0.95a4
#
DISCID=fe0e4a12
DTITLE=“Ù–ß - music factory
DYEAR=1994
DGENRE=Musical
TTITLE0=GLAS and CEWITTER
TTITLE1=BEIFALL
TTITLE2=JUST WHEN I NEED YOU MOST
TTITLE3=FEELINGS
TTITLE4=ONCE UPON A TIME INTHE WEST
TTITLE5=LOVE STORY
TTITLE6=ROMANCE ANONYME
TTITLE7=YESTERDAY
TTITLE8=LA MAAMMA
TTITLE9=MY WAY
TTITLE10=SOLTTARIO
TTITLE11=THE LONELY SHEPHERD
TTITLE12=GREENSLEEVES
TTITLE13=ANNIE'S SONG
TTITLE14=NADIA'S THEME
TTITLE15=EI CONDR PASA
TTITLE16=I WONDER
TTITLE17=SOMEWHERE MY LOVE
EXTD=
EXTT0=
EXTT1=
EXTT2=
EXTT3=
EXTT4=
EXTT5=
EXTT6=
EXTT7=
EXTT8=
EXTT9=
EXTT10=
EXTT11=
EXTT12=
EXTT13=
EXTT14=
EXTT15=
EXTT16=
EXTT17=
PLAYORDER=
